HIERARCHY
ROOT hip
{
	OFFSET 0.000000 0.000000 0.000000 
	CHANNELS 6 Xposition Yposition Zposition Xrotation Zrotation Yrotation
	JOINT abdomen
	{
		OFFSET 0.000000 3.402643 0.000000 
		CHANNELS 3 Xrotation Zrotation Yrotation
		JOINT chest
		{
			OFFSET 0.000000 8.438565 -0.680529 
			CHANNELS 3 Xrotation Zrotation Yrotation
			JOINT neck
			{
				OFFSET 0.000000 10.207942 -0.272212 
				CHANNELS 3 Xrotation Zrotation Yrotation
				JOINT head
				{
					OFFSET 0.000000 3.130431 0.000000 
					CHANNELS 3 Xrotation Zrotation Yrotation
					End Site
					{
						OFFSET 0.000000 3.130435 0.000000 
					}
				}
			}
			JOINT lCollar
			{
				OFFSET 3.470700 6.669187 -0.816635 
				CHANNELS 3 Yrotation Zrotation Xrotation
				JOINT lShldr
				{
					OFFSET 3.198488 0.000000 0.000000 
					CHANNELS 3 Zrotation Yrotation Xrotation
					JOINT lForeArm
					{
						OFFSET 10.139888 0.000000 0.000000 
						CHANNELS 3 Yrotation Zrotation Xrotation
						JOINT lHand
						{
							OFFSET 8.370511 0.000000 0.000000 
							CHANNELS 3 Zrotation Yrotation Xrotation
							End Site
							{
								OFFSET 4.083176 0.000000 0.000000 
							}
						}
					}
				}
			}
			JOINT rCollar
			{
				OFFSET -3.470700 6.669187 -0.816635 
				CHANNELS 3 Yrotation Zrotation Xrotation
				JOINT rShldr
				{
					OFFSET -3.198488 0.000000 0.000000 
					CHANNELS 3 Zrotation Yrotation Xrotation
					JOINT rForeArm
					{
						OFFSET -10.139888 0.000000 0.000000 
						CHANNELS 3 Yrotation Zrotation Xrotation
						JOINT rHand
						{
							OFFSET -8.370511 0.000000 0.000000 
							CHANNELS 3 Zrotation Yrotation Xrotation
							End Site
							{
								OFFSET -4.083176 0.000000 0.000000 
							}
						}
					}
				}
			}
		}
	}
	JOINT lThigh
	{
		OFFSET 5.308129 -1.633274 1.361059 
		CHANNELS 3 Xrotation Zrotation Yrotation
		JOINT lShin
		{
			OFFSET -2.041588 -20.007561 0.000000 
			CHANNELS 3 Xrotation Zrotation Yrotation
			JOINT lFoot
			{
				OFFSET 0.000000 -19.190928 -1.224953 
				CHANNELS 3 Xrotation Yrotation Zrotation
				End Site
				{
					OFFSET 0.000000 -2.449906 4.627600 
				}
			}
		}
	}
	JOINT rThigh
	{
		OFFSET -5.308129 -1.633274 1.361059 
		CHANNELS 3 Xrotation Zrotation Yrotation
		JOINT rShin
		{
			OFFSET 2.041588 -20.007561 0.000000 
			CHANNELS 3 Xrotation Zrotation Yrotation
			JOINT rFoot
			{
				OFFSET 0.000000 -19.190928 -1.224953 
				CHANNELS 3 Xrotation Yrotation Zrotation
				End Site
				{
					OFFSET 0.000000 -2.449906 4.627600 
				}
			}
		}
	}
}
MOTION
Frames: 11
Frame Time: 0.033333
-0.797149 49.985188 -0.402509 -0.146485 -0.126953 -0.361004 0.000000 0.000000 0.000000 -10.616223 -0.777478 -2.373821 14.468400 -1.561634 -0.291659 8.330078 0.136718 0.028668 -3.519355 9.157742 6.311733 -30.361271 25.860769 -48.659130 -18.777075 8.643485 38.558342 1.294404 6.303634 -8.207977 3.090466 -14.082293 8.028685 29.753250 -13.677239 -42.563744 10.833150 -10.781944 53.506111 6.365411 -6.436636 -8.175189 1.893540 6.942863 10.156497 9.306594 -1.972369 -8.943226 -6.265431 0.159795 -0.846456 2.661548 -5.842483 -14.545123 8.623820 1.441099 -1.208480 -7.363928 0.058978 -1.397036 
-0.795257 49.968624 -0.407619 -0.224610 -0.097656 -0.517195 0.000000 0.000000 0.000000 -10.479468 -0.768220 -2.279796 14.996543 -1.633156 -0.205914 7.040977 0.400243 0.057442 -3.519355 9.157742 6.311733 -30.427444 25.906406 -48.823116 -18.863974 8.720275 38.668667 1.375786 6.709338 -8.230834 3.090466 -14.082293 8.028685 30.030354 -13.611745 -42.589222 10.839510 -10.776081 53.123634 6.524524 -6.512528 -8.178424 2.176260 6.872924 10.139063 8.954674 -1.952708 -8.854893 -6.492130 0.154038 -0.657223 2.642680 -5.950747 -14.663890 8.838158 1.519011 -0.909948 -7.597440 0.083113 -1.483441 
-0.791094 49.969101 -0.416420 -0.322266 -0.097655 -0.673279 0.000000 0.000000 0.000000 -10.362135 -0.710871 -2.164951 15.484384 -1.551888 -0.244942 5.956919 0.526782 0.024479 -3.519355 9.157742 6.311733 -30.592628 25.868837 -49.102249 -18.981916 8.825182 38.721737 1.570259 6.943367 -8.248418 3.090466 -14.082293 8.028685 30.313745 -13.558339 -42.652615 10.850786 -10.794165 53.148540 6.949983 -6.382545 -8.139976 2.292502 6.840103 10.115822 8.951216 -1.943162 -8.698347 -6.423344 0.142093 -0.683814 2.672125 -5.979841 -14.725430 8.956685 1.548525 -0.755733 -7.559165 0.081661 -1.451780 
-0.783289 49.969574 -0.424888 -0.478516 -0.068357 -0.800210 0.000000 0.000000 0.000000 -10.147039 -0.595999 -2.080839 15.631735 -1.655674 -0.287578 5.185268 0.731120 -0.082728 -3.519355 9.157742 6.311733 -30.782345 25.896601 -49.032597 -18.929636 8.790849 38.715725 1.672856 6.987165 -8.255560 3.090466 -14.082293 8.028685 30.532547 -13.447146 -42.912834 10.928220 -10.903133 53.261463 7.023867 -6.687698 -8.174973 2.353035 6.816122 10.122997 9.145090 -1.933389 -8.600958 -6.334566 0.157078 -0.783751 2.818695 -6.030163 -14.768131 8.898164 1.568255 -0.601498 -7.634681 0.083901 -1.547537 
-0.769660 49.963902 -0.441780 -0.537109 -0.009765 -0.859284 0.000000 0.000000 0.000000 -9.980929 -0.548217 -2.061732 15.702439 -1.913137 -0.269640 4.159589 0.915210 -0.188303 -3.519355 9.157742 6.311733 -30.933147 25.926147 -49.012600 -18.903547 8.761693 38.468281 1.599705 7.085493 -8.259356 3.090466 -14.082293 8.028685 30.737692 -13.373619 -43.151855 10.966967 -10.994984 53.630096 7.267214 -6.731780 -8.167615 2.458303 6.732772 10.095263 9.011373 -1.972227 -8.508106 -6.433448 0.172989 -0.691430 2.732642 -6.140397 -14.818773 9.185550 1.539870 -0.451845 -7.849375 0.100515 -1.594474 
-0.756366 49.957748 -0.461938 -0.634766 -0.039060 -0.985895 0.000000 0.000000 0.000000 -9.863463 -0.346366 -1.980794 15.878699 -1.954857 -0.324941 3.309885 0.904331 -0.240027 -3.519355 9.157742 6.311733 -31.040102 25.879389 -48.790249 -18.829348 8.687377 37.919025 1.599530 7.016447 -8.258410 3.090466 -14.082293 8.028685 30.763622 -13.359548 -43.071804 10.943419 -10.978338 53.319386 7.208884 -6.601999 -8.155385 2.506047 6.740070 10.115406 9.135123 -1.952918 -8.484579 -6.580265 0.151466 -0.626415 2.792721 -6.152697 -14.858713 9.184876 1.567893 -0.284272 -7.819616 0.109122 -1.622552 
-0.752486 49.959637 -0.491887 -0.615236 -0.126946 -1.014262 0.000000 0.000000 0.000000 -9.843767 -0.105840 -2.012885 15.978760 -2.175451 -0.308957 2.488857 1.213761 -0.364364 -3.519355 9.157742 6.311733 -31.261906 25.761379 -48.998463 -18.884674 8.737423 38.036747 1.731580 7.202366 -8.276491 3.090466 -14.082293 8.028685 30.784393 -13.294715 -43.135197 10.993848 -11.010934 53.155407 7.281571 -6.966529 -8.200290 2.401080 6.833480 10.153902 9.264520 -1.943184 -8.539652 -6.589957 0.152487 -0.636640 2.750550 -6.030358 -14.729403 9.096595 1.510254 -0.321670 -7.692383 0.088721 -1.588443 
-0.742550 49.957748 -0.523825 -0.556642 -0.117182 -1.004721 0.000000 0.000000 0.000000 -9.843750 0.009622 -2.081746 16.516476 -2.185783 -0.260861 0.974712 1.258299 -0.324732 -3.519355 9.157742 6.311733 -31.349524 25.695427 -49.050827 -18.858555 8.732243 38.278263 1.879792 7.203168 -8.282624 3.090466 -14.082293 8.028685 30.691336 -13.256177 -42.978531 10.960275 -10.981560 52.941437 7.460035 -7.039635 -8.202284 2.252161 6.817654 10.133910 9.354563 -1.943063 -8.524819 -6.599612 0.151354 -0.647831 2.681842 -6.029538 -14.700481 9.050580 1.491377 -0.335028 -7.749490 0.085483 -1.633084 
-0.735357 49.959167 -0.545162 -0.605469 -0.068356 -0.995371 0.000000 0.000000 0.000000 -9.775397 0.067367 -2.120981 17.325851 -2.028436 -0.255708 -0.939695 1.223077 -0.264152 -3.519355 9.157742 6.311733 -31.313211 25.610977 -48.887421 -18.817526 8.694106 38.369846 1.837913 7.079046 -8.271926 3.090466 -14.082293 8.028685 30.453093 -13.268227 -42.352032 10.814210 -10.782133 52.464516 7.576427 -7.161098 -8.214890 2.322031 6.773725 10.109707 9.242905 -1.952860 -8.539117 -6.491899 0.152275 -0.679355 2.663761 -6.100957 -14.756590 9.169265 1.491538 -0.328961 -7.808279 0.091519 -1.641313 
-0.725422 49.963421 -0.581169 -0.634766 0.009765 -0.986436 0.000000 0.000000 0.000000 -9.687506 0.057758 -2.236422 17.753687 -1.840796 -0.350363 -2.531383 1.101912 -0.285189 -3.519355 9.157742 6.311733 -31.212111 25.593264 -48.694523 -18.779329 8.648198 38.069401 1.813255 7.184094 -8.274565 3.090466 -14.082293 8.028685 30.303226 -13.016986 -42.253090 10.806957 -10.780853 52.775951 7.754891 -7.234200 -8.218030 2.379451 6.644744 10.028840 9.079398 -1.944745 -8.403038 -6.541131 0.147019 -0.628368 2.594425 -6.206236 -14.786916 9.260857 1.471065 -0.305869 -7.693465 0.094855 -1.564210 
-0.719176 49.962952 -0.652190 -0.585938 0.048826 -1.035656 0.000000 0.000000 0.000000 -9.658223 0.115526 -2.168098 17.551531 -2.116425 -0.393657 -3.305468 1.595777 -0.551210 -3.519355 9.157742 6.311733 -31.077879 25.383457 -48.342587 -18.666138 8.555439 38.236244 2.236172 7.341211 -8.304937 3.090466 -14.082293 8.028685 30.132393 -12.917919 -41.911823 10.758366 -10.701743 52.338608 7.784263 -7.368131 -8.230313 2.235524 6.610043 9.977380 9.097184 -1.923591 -8.276031 -6.462546 0.149143 -0.680720 2.361724 -6.256866 -14.773713 9.443847 1.421804 -0.231327 -7.751647 0.082410 -1.559457 
